<mxfile modified="2024-03-15T12:56:36.305Z" host="app.diagrams.net" agent="Mozilla/5.0 (Macintosh; Intel Mac OS X 10_15_7) AppleWebKit/537.36 (KHTML, like Gecko) Chrome/122.0.0.0 Safari/537.36" etag="gb3tNYQeoO1j3mAK4wVo" version="24.0.7" type="github">
  <diagram id="Ht1M8jgEwFfnCIfOTk4-" name="Page-1">
    <mxGraphModel dx="1053" dy="1567" grid="1" gridSize="10" guides="1" tooltips="1" connect="1" arrows="1" fold="1" page="1" pageScale="1" pageWidth="1169" pageHeight="827" math="0" shadow="0">
      <root>
        <mxCell id="0" />
        <mxCell id="1" parent="0" />
        <mxCell id="yaOFRfnHvdeHHMXGzQVh-5" value="&lt;font style=&quot;font-size: 12px;&quot;&gt;MongoDB&lt;/font&gt;" style="dashed=0;outlineConnect=0;html=1;align=center;labelPosition=center;verticalLabelPosition=bottom;verticalAlign=top;shape=mxgraph.webicons.mongodb;gradientColor=#DFDEDE" parent="1" vertex="1">
          <mxGeometry x="932" y="-547" width="30" height="42" as="geometry" />
        </mxCell>
        <mxCell id="yaOFRfnHvdeHHMXGzQVh-6" value="&lt;font style=&quot;font-size: 14px;&quot;&gt;Database&lt;/font&gt;" style="sketch=0;points=[[0,0,0],[0.25,0,0],[0.5,0,0],[0.75,0,0],[1,0,0],[0,1,0],[0.25,1,0],[0.5,1,0],[0.75,1,0],[1,1,0],[0,0.25,0],[0,0.5,0],[0,0.75,0],[1,0.25,0],[1,0.5,0],[1,0.75,0]];outlineConnect=0;fontColor=#232F3E;fillColor=#C925D1;strokeColor=#ffffff;dashed=0;verticalLabelPosition=bottom;verticalAlign=top;align=center;html=1;fontSize=12;fontStyle=0;aspect=fixed;shape=mxgraph.aws4.resourceIcon;resIcon=mxgraph.aws4.documentdb_with_mongodb_compatibility;direction=south;" parent="1" vertex="1">
          <mxGeometry x="943" y="-482" width="78" height="78" as="geometry" />
        </mxCell>
        <mxCell id="yaOFRfnHvdeHHMXGzQVh-36" style="edgeStyle=orthogonalEdgeStyle;rounded=0;orthogonalLoop=1;jettySize=auto;html=1;startArrow=classic;startFill=1;" parent="1" source="yaOFRfnHvdeHHMXGzQVh-7" target="yaOFRfnHvdeHHMXGzQVh-6" edge="1">
          <mxGeometry relative="1" as="geometry" />
        </mxCell>
        <mxCell id="yaOFRfnHvdeHHMXGzQVh-62" value="&lt;font style=&quot;font-size: 14px;&quot;&gt;Read/Write&lt;/font&gt;" style="edgeLabel;html=1;align=center;verticalAlign=middle;resizable=0;points=[];" parent="yaOFRfnHvdeHHMXGzQVh-36" vertex="1" connectable="0">
          <mxGeometry x="0.5673" y="4" relative="1" as="geometry">
            <mxPoint x="-4" y="-37" as="offset" />
          </mxGeometry>
        </mxCell>
        <mxCell id="yaOFRfnHvdeHHMXGzQVh-7" value="&lt;div style=&quot;font-size: 18px;&quot;&gt;&lt;font style=&quot;font-size: 18px;&quot;&gt;&lt;br&gt;&lt;/font&gt;&lt;/div&gt;&lt;div style=&quot;font-size: 18px;&quot;&gt;&lt;font style=&quot;font-size: 18px;&quot;&gt;&lt;br&gt;&lt;/font&gt;&lt;/div&gt;&lt;div style=&quot;font-size: 18px;&quot;&gt;&lt;font style=&quot;font-size: 18px;&quot;&gt;&lt;br&gt;&lt;/font&gt;&lt;/div&gt;&lt;div style=&quot;font-size: 18px;&quot;&gt;&lt;font style=&quot;font-size: 18px;&quot;&gt;&lt;br&gt;&lt;/font&gt;&lt;/div&gt;&lt;div style=&quot;font-size: 18px;&quot;&gt;&lt;font style=&quot;font-size: 18px;&quot;&gt;&lt;br&gt;&lt;/font&gt;&lt;/div&gt;&lt;div style=&quot;font-size: 18px;&quot;&gt;&lt;span style=&quot;background-color: initial;&quot;&gt;&lt;br&gt;&lt;/span&gt;&lt;/div&gt;&lt;div style=&quot;font-size: 18px;&quot;&gt;&lt;span style=&quot;background-color: initial;&quot;&gt;&lt;br&gt;&lt;/span&gt;&lt;/div&gt;&lt;div style=&quot;font-size: 18px;&quot;&gt;&lt;span style=&quot;background-color: initial;&quot;&gt;&lt;br&gt;&lt;/span&gt;&lt;/div&gt;&lt;div style=&quot;font-size: 18px;&quot;&gt;&lt;span style=&quot;background-color: initial;&quot;&gt;User Service&lt;/span&gt;&lt;br&gt;&lt;/div&gt;" style="aspect=fixed;sketch=0;html=1;dashed=0;whitespace=wrap;fillColor=#2875E2;strokeColor=#ffffff;points=[[0.005,0.63,0],[0.1,0.2,0],[0.9,0.2,0],[0.5,0,0],[0.995,0.63,0],[0.72,0.99,0],[0.5,1,0],[0.28,0.99,0]];shape=mxgraph.kubernetes.icon2;kubernetesLabel=1;prIcon=api" parent="1" vertex="1">
          <mxGeometry x="723" y="-698" width="125" height="120" as="geometry" />
        </mxCell>
        <mxCell id="OTSbnzIJWCMkzen8IBO5-1" value="" style="edgeStyle=orthogonalEdgeStyle;rounded=0;orthogonalLoop=1;jettySize=auto;html=1;startArrow=classic;startFill=1;exitX=0.08;exitY=0.5;exitDx=0;exitDy=0;exitPerimeter=0;" parent="1" source="yaOFRfnHvdeHHMXGzQVh-8" target="yaOFRfnHvdeHHMXGzQVh-13" edge="1">
          <mxGeometry relative="1" as="geometry" />
        </mxCell>
        <mxCell id="OTSbnzIJWCMkzen8IBO5-2" value="&lt;font style=&quot;font-size: 14px;&quot;&gt;http&lt;/font&gt;" style="edgeLabel;html=1;align=center;verticalAlign=middle;resizable=0;points=[];" parent="OTSbnzIJWCMkzen8IBO5-1" vertex="1" connectable="0">
          <mxGeometry x="0.0702" y="-2" relative="1" as="geometry">
            <mxPoint as="offset" />
          </mxGeometry>
        </mxCell>
        <mxCell id="yaOFRfnHvdeHHMXGzQVh-8" value="" style="sketch=0;aspect=fixed;pointerEvents=1;shadow=0;dashed=0;html=1;strokeColor=none;labelPosition=center;verticalLabelPosition=bottom;verticalAlign=top;align=center;fillColor=#00188D;shape=mxgraph.azure.laptop" parent="1" vertex="1">
          <mxGeometry x="313" y="-696" width="100" height="60" as="geometry" />
        </mxCell>
        <mxCell id="yaOFRfnHvdeHHMXGzQVh-13" value="&lt;font style=&quot;font-size: 18px;&quot;&gt;FrontEnd&lt;/font&gt;" style="outlineConnect=0;dashed=0;verticalLabelPosition=bottom;verticalAlign=top;align=center;html=1;shape=mxgraph.aws3.android;fillColor=#8CC64F;gradientColor=none;" parent="1" vertex="1">
          <mxGeometry x="140" y="-724" width="100" height="116" as="geometry" />
        </mxCell>
        <mxCell id="yaOFRfnHvdeHHMXGzQVh-30" value="&lt;font style=&quot;font-size: 12px;&quot;&gt;NodeJs&lt;/font&gt;" style="outlineConnect=0;dashed=0;verticalLabelPosition=bottom;verticalAlign=top;align=center;html=1;shape=mxgraph.aws3.android;fillColor=#8CC64F;gradientColor=none;" parent="1" vertex="1">
          <mxGeometry x="238" y="-760" width="30" height="33" as="geometry" />
        </mxCell>
        <mxCell id="yaOFRfnHvdeHHMXGzQVh-34" value="&lt;font style=&quot;font-size: 14px;&quot;&gt;Event Store DB&lt;/font&gt;" style="sketch=0;points=[[0,0,0],[0.25,0,0],[0.5,0,0],[0.75,0,0],[1,0,0],[0,1,0],[0.25,1,0],[0.5,1,0],[0.75,1,0],[1,1,0],[0,0.25,0],[0,0.5,0],[0,0.75,0],[1,0.25,0],[1,0.5,0],[1,0.75,0]];outlineConnect=0;fontColor=#232F3E;fillColor=#C925D1;strokeColor=#ffffff;dashed=0;verticalLabelPosition=bottom;verticalAlign=top;align=center;html=1;fontSize=12;fontStyle=0;aspect=fixed;shape=mxgraph.aws4.resourceIcon;resIcon=mxgraph.aws4.keyspaces;" parent="1" vertex="1">
          <mxGeometry x="743" y="-474.5" width="78" height="78" as="geometry" />
        </mxCell>
        <mxCell id="yaOFRfnHvdeHHMXGzQVh-35" value="&lt;font style=&quot;font-size: 12px;&quot;&gt;Apache Kafka&lt;/font&gt;" style="dashed=0;outlineConnect=0;html=1;align=center;labelPosition=center;verticalLabelPosition=bottom;verticalAlign=top;shape=mxgraph.webicons.apache;gradientColor=#DFDEDE" parent="1" vertex="1">
          <mxGeometry x="683" y="-532" width="30" height="40" as="geometry" />
        </mxCell>
        <mxCell id="yaOFRfnHvdeHHMXGzQVh-43" style="edgeStyle=orthogonalEdgeStyle;rounded=0;orthogonalLoop=1;jettySize=auto;html=1;strokeColor=none;startArrow=classic;startFill=1;" parent="1" source="yaOFRfnHvdeHHMXGzQVh-40" target="yaOFRfnHvdeHHMXGzQVh-34" edge="1">
          <mxGeometry relative="1" as="geometry" />
        </mxCell>
        <mxCell id="yaOFRfnHvdeHHMXGzQVh-55" style="edgeStyle=orthogonalEdgeStyle;rounded=0;orthogonalLoop=1;jettySize=auto;html=1;entryX=0.5;entryY=0;entryDx=0;entryDy=0;entryPerimeter=0;" parent="1" source="yaOFRfnHvdeHHMXGzQVh-40" target="yaOFRfnHvdeHHMXGzQVh-49" edge="1">
          <mxGeometry relative="1" as="geometry">
            <Array as="points">
              <mxPoint x="260" y="-400" />
              <mxPoint x="260" y="-237" />
              <mxPoint x="775" y="-237" />
            </Array>
          </mxGeometry>
        </mxCell>
        <mxCell id="yaOFRfnHvdeHHMXGzQVh-93" value="&lt;font style=&quot;font-size: 14px;&quot;&gt;Send Event Notification&lt;/font&gt;" style="edgeLabel;html=1;align=center;verticalAlign=middle;resizable=0;points=[];" parent="yaOFRfnHvdeHHMXGzQVh-55" vertex="1" connectable="0">
          <mxGeometry x="0.1926" y="4" relative="1" as="geometry">
            <mxPoint as="offset" />
          </mxGeometry>
        </mxCell>
        <mxCell id="yaOFRfnHvdeHHMXGzQVh-40" value="&lt;div style=&quot;font-size: 18px;&quot;&gt;&lt;br&gt;&lt;/div&gt;&lt;div style=&quot;font-size: 18px;&quot;&gt;&lt;br&gt;&lt;/div&gt;&lt;div style=&quot;font-size: 18px;&quot;&gt;&lt;br&gt;&lt;/div&gt;&lt;div style=&quot;font-size: 18px;&quot;&gt;&lt;br&gt;&lt;/div&gt;&lt;div style=&quot;font-size: 18px;&quot;&gt;&lt;br&gt;&lt;/div&gt;&lt;div style=&quot;font-size: 18px;&quot;&gt;&lt;br&gt;&lt;/div&gt;&lt;div style=&quot;font-size: 18px;&quot;&gt;&lt;br&gt;&lt;/div&gt;&lt;div style=&quot;font-size: 18px;&quot;&gt;&lt;br&gt;&lt;/div&gt;&lt;div style=&quot;font-size: 18px;&quot;&gt;Event Service&lt;/div&gt;" style="aspect=fixed;sketch=0;html=1;dashed=0;whitespace=wrap;fillColor=#2875E2;strokeColor=#ffffff;points=[[0.005,0.63,0],[0.1,0.2,0],[0.9,0.2,0],[0.5,0,0],[0.995,0.63,0],[0.72,0.99,0],[0.5,1,0],[0.28,0.99,0]];shape=mxgraph.kubernetes.icon2;kubernetesLabel=1;prIcon=api" parent="1" vertex="1">
          <mxGeometry x="300.5" y="-510" width="125" height="120" as="geometry" />
        </mxCell>
        <mxCell id="yaOFRfnHvdeHHMXGzQVh-44" style="edgeStyle=orthogonalEdgeStyle;rounded=0;orthogonalLoop=1;jettySize=auto;html=1;entryX=1;entryY=0.5;entryDx=0;entryDy=0;entryPerimeter=0;startArrow=classic;startFill=1;" parent="1" source="yaOFRfnHvdeHHMXGzQVh-40" target="yaOFRfnHvdeHHMXGzQVh-6" edge="1">
          <mxGeometry relative="1" as="geometry">
            <Array as="points">
              <mxPoint x="982" y="-342" />
            </Array>
          </mxGeometry>
        </mxCell>
        <mxCell id="yaOFRfnHvdeHHMXGzQVh-61" value="&lt;font style=&quot;font-size: 14px;&quot;&gt;Read/Write&lt;/font&gt;" style="edgeLabel;html=1;align=center;verticalAlign=middle;resizable=0;points=[];" parent="yaOFRfnHvdeHHMXGzQVh-44" vertex="1" connectable="0">
          <mxGeometry x="0.4563" y="4" relative="1" as="geometry">
            <mxPoint y="-1" as="offset" />
          </mxGeometry>
        </mxCell>
        <mxCell id="yaOFRfnHvdeHHMXGzQVh-48" value="&lt;font style=&quot;font-size: 12px;&quot;&gt;AWS Lambda&lt;/font&gt;" style="outlineConnect=0;dashed=0;verticalLabelPosition=bottom;verticalAlign=top;align=center;html=1;shape=mxgraph.aws3.lambda;fillColor=#F58534;gradientColor=none;" parent="1" vertex="1">
          <mxGeometry x="833.88" y="-203" width="20" height="23" as="geometry" />
        </mxCell>
        <mxCell id="yaOFRfnHvdeHHMXGzQVh-59" style="edgeStyle=orthogonalEdgeStyle;rounded=0;orthogonalLoop=1;jettySize=auto;html=1;" parent="1" source="yaOFRfnHvdeHHMXGzQVh-49" target="yaOFRfnHvdeHHMXGzQVh-51" edge="1">
          <mxGeometry relative="1" as="geometry">
            <mxPoint x="958" y="-234" as="targetPoint" />
          </mxGeometry>
        </mxCell>
        <mxCell id="yaOFRfnHvdeHHMXGzQVh-60" value="&lt;font style=&quot;font-size: 14px;&quot;&gt;Trigger Email&lt;/font&gt;" style="edgeLabel;html=1;align=center;verticalAlign=middle;resizable=0;points=[];" parent="yaOFRfnHvdeHHMXGzQVh-59" vertex="1" connectable="0">
          <mxGeometry x="0.2709" y="4" relative="1" as="geometry">
            <mxPoint as="offset" />
          </mxGeometry>
        </mxCell>
        <mxCell id="yaOFRfnHvdeHHMXGzQVh-66" style="edgeStyle=orthogonalEdgeStyle;rounded=0;orthogonalLoop=1;jettySize=auto;html=1;startArrow=none;startFill=0;" parent="1" source="yaOFRfnHvdeHHMXGzQVh-49" target="yaOFRfnHvdeHHMXGzQVh-52" edge="1">
          <mxGeometry relative="1" as="geometry">
            <Array as="points">
              <mxPoint x="483" y="-117" />
              <mxPoint x="483" y="-117" />
            </Array>
          </mxGeometry>
        </mxCell>
        <mxCell id="yaOFRfnHvdeHHMXGzQVh-67" value="&lt;font style=&quot;font-size: 15px;&quot;&gt;Schedule/Trigger Email&lt;/font&gt;" style="edgeLabel;html=1;align=center;verticalAlign=middle;resizable=0;points=[];" parent="yaOFRfnHvdeHHMXGzQVh-66" vertex="1" connectable="0">
          <mxGeometry x="0.1697" y="3" relative="1" as="geometry">
            <mxPoint as="offset" />
          </mxGeometry>
        </mxCell>
        <mxCell id="yaOFRfnHvdeHHMXGzQVh-49" value="&lt;font style=&quot;font-size: 18px;&quot;&gt;Notification Service&lt;/font&gt;" style="outlineConnect=0;dashed=0;verticalLabelPosition=bottom;verticalAlign=top;align=center;html=1;shape=mxgraph.aws3.lambda;fillColor=#F58534;gradientColor=none;" parent="1" vertex="1">
          <mxGeometry x="736.5" y="-164" width="76.5" height="93" as="geometry" />
        </mxCell>
        <mxCell id="yaOFRfnHvdeHHMXGzQVh-51" value="&lt;div&gt;&lt;font style=&quot;font-size: 14px;&quot;&gt;Email&lt;/font&gt;&lt;/div&gt;" style="sketch=0;outlineConnect=0;fontColor=#232F3E;gradientColor=none;strokeColor=#ffffff;fillColor=#232F3E;dashed=0;verticalLabelPosition=middle;verticalAlign=bottom;align=center;html=1;whiteSpace=wrap;fontSize=10;fontStyle=1;spacing=3;shape=mxgraph.aws4.productIcon;prIcon=mxgraph.aws4.simple_email_service;" parent="1" vertex="1">
          <mxGeometry x="923" y="-292" width="70" height="100" as="geometry" />
        </mxCell>
        <mxCell id="yaOFRfnHvdeHHMXGzQVh-52" value="&lt;font style=&quot;font-size: 14px;&quot;&gt;Scheduler&lt;/font&gt;" style="sketch=0;outlineConnect=0;fontColor=#232F3E;gradientColor=none;fillColor=#E7157B;strokeColor=none;dashed=0;verticalLabelPosition=bottom;verticalAlign=top;align=center;html=1;fontSize=12;fontStyle=0;aspect=fixed;pointerEvents=1;shape=mxgraph.aws4.eventbridge_scheduler;" parent="1" vertex="1">
          <mxGeometry x="354" y="-156.5" width="78" height="78" as="geometry" />
        </mxCell>
        <mxCell id="yaOFRfnHvdeHHMXGzQVh-57" value="&lt;font style=&quot;font-size: 12px;&quot;&gt;AWS Simple&amp;nbsp;&lt;/font&gt;&lt;div style=&quot;&quot;&gt;&lt;font style=&quot;font-size: 12px;&quot;&gt;Email Service&lt;/font&gt;&lt;/div&gt;" style="text;html=1;align=center;verticalAlign=middle;resizable=0;points=[];autosize=1;strokeColor=none;fillColor=none;" parent="1" vertex="1">
          <mxGeometry x="832" y="-311" width="100" height="40" as="geometry" />
        </mxCell>
        <mxCell id="yaOFRfnHvdeHHMXGzQVh-72" value="&lt;font style=&quot;font-size: 12px;&quot;&gt;AWS Event Bridge&lt;/font&gt;" style="sketch=0;outlineConnect=0;fontColor=#232F3E;gradientColor=none;fillColor=#E7157B;strokeColor=none;dashed=0;verticalLabelPosition=bottom;verticalAlign=top;align=center;html=1;fontSize=12;fontStyle=0;aspect=fixed;pointerEvents=1;shape=mxgraph.aws4.eventbridge_scheduler;" parent="1" vertex="1">
          <mxGeometry x="470.5" y="-185" width="21" height="21" as="geometry" />
        </mxCell>
        <mxCell id="yaOFRfnHvdeHHMXGzQVh-75" style="edgeStyle=orthogonalEdgeStyle;rounded=0;orthogonalLoop=1;jettySize=auto;html=1;entryX=0.005;entryY=0.63;entryDx=0;entryDy=0;entryPerimeter=0;startArrow=classic;startFill=1;exitX=0.736;exitY=1.008;exitDx=0;exitDy=0;exitPerimeter=0;" parent="1" source="yaOFRfnHvdeHHMXGzQVh-8" target="yaOFRfnHvdeHHMXGzQVh-7" edge="1">
          <mxGeometry relative="1" as="geometry">
            <mxPoint x="363" y="-592" as="sourcePoint" />
            <mxPoint x="613" y="-502" as="targetPoint" />
            <Array as="points">
              <mxPoint x="387" y="-622" />
            </Array>
          </mxGeometry>
        </mxCell>
        <mxCell id="yaOFRfnHvdeHHMXGzQVh-76" value="&lt;font style=&quot;font-size: 15px;&quot;&gt;Users Create/Read/Update/Delete (CRUD)&lt;/font&gt;" style="edgeLabel;html=1;align=center;verticalAlign=middle;resizable=0;points=[];" parent="yaOFRfnHvdeHHMXGzQVh-75" vertex="1" connectable="0">
          <mxGeometry x="0.3137" relative="1" as="geometry">
            <mxPoint x="-50" y="19" as="offset" />
          </mxGeometry>
        </mxCell>
        <mxCell id="yaOFRfnHvdeHHMXGzQVh-80" value="&lt;div style=&quot;&quot;&gt;&lt;font style=&quot;font-size: 12px;&quot;&gt;&lt;br&gt;&lt;/font&gt;&lt;/div&gt;&lt;div style=&quot;&quot;&gt;&lt;font style=&quot;font-size: 12px;&quot;&gt;&lt;br&gt;&lt;/font&gt;&lt;/div&gt;&lt;font style=&quot;font-size: 12px;&quot;&gt;&lt;div style=&quot;&quot;&gt;&lt;font style=&quot;font-size: 12px;&quot;&gt;&lt;br&gt;&lt;/font&gt;&lt;/div&gt;&lt;div style=&quot;&quot;&gt;&lt;span style=&quot;background-color: initial;&quot;&gt;&lt;font style=&quot;font-size: 12px;&quot;&gt;FastAPI&lt;/font&gt;&lt;/span&gt;&lt;br&gt;&lt;/div&gt;&lt;/font&gt;" style="aspect=fixed;sketch=0;html=1;dashed=0;whitespace=wrap;fillColor=#2875E2;strokeColor=#ffffff;points=[[0.005,0.63,0],[0.1,0.2,0],[0.9,0.2,0],[0.5,0,0],[0.995,0.63,0],[0.72,0.99,0],[0.5,1,0],[0.28,0.99,0]];shape=mxgraph.kubernetes.icon2;prIcon=api" parent="1" vertex="1">
          <mxGeometry x="391.12" y="-462" width="21.88" height="21" as="geometry" />
        </mxCell>
        <mxCell id="yaOFRfnHvdeHHMXGzQVh-85" value="&lt;div style=&quot;&quot;&gt;&lt;font style=&quot;font-size: 12px;&quot;&gt;&lt;br&gt;&lt;/font&gt;&lt;/div&gt;&lt;div style=&quot;&quot;&gt;&lt;font style=&quot;font-size: 12px;&quot;&gt;&lt;br&gt;&lt;/font&gt;&lt;/div&gt;&lt;font style=&quot;font-size: 12px;&quot;&gt;&lt;div style=&quot;&quot;&gt;&lt;font style=&quot;font-size: 12px;&quot;&gt;&lt;br&gt;&lt;/font&gt;&lt;/div&gt;&lt;div style=&quot;&quot;&gt;&lt;span style=&quot;background-color: initial;&quot;&gt;&lt;font style=&quot;font-size: 12px;&quot;&gt;FastAPI&lt;/font&gt;&lt;/span&gt;&lt;br&gt;&lt;/div&gt;&lt;/font&gt;" style="aspect=fixed;sketch=0;html=1;dashed=0;whitespace=wrap;fillColor=#2875E2;strokeColor=#ffffff;points=[[0.005,0.63,0],[0.1,0.2,0],[0.9,0.2,0],[0.5,0,0],[0.995,0.63,0],[0.72,0.99,0],[0.5,1,0],[0.28,0.99,0]];shape=mxgraph.kubernetes.icon2;prIcon=api" parent="1" vertex="1">
          <mxGeometry x="832" y="-724" width="21.88" height="21" as="geometry" />
        </mxCell>
        <mxCell id="yaOFRfnHvdeHHMXGzQVh-89" style="edgeStyle=orthogonalEdgeStyle;rounded=0;orthogonalLoop=1;jettySize=auto;html=1;startArrow=classic;startFill=1;exitX=0;exitY=0.5;exitDx=0;exitDy=0;exitPerimeter=0;endArrow=none;endFill=0;entryX=0.995;entryY=0.63;entryDx=0;entryDy=0;entryPerimeter=0;" parent="1" source="yaOFRfnHvdeHHMXGzQVh-34" target="yaOFRfnHvdeHHMXGzQVh-40" edge="1">
          <mxGeometry relative="1" as="geometry">
            <mxPoint x="733" y="-432" as="sourcePoint" />
            <mxPoint x="470" y="-435" as="targetPoint" />
            <Array as="points">
              <mxPoint x="425" y="-435" />
            </Array>
          </mxGeometry>
        </mxCell>
        <mxCell id="yaOFRfnHvdeHHMXGzQVh-90" value="&lt;font style=&quot;font-size: 14px;&quot;&gt;Event Logs&lt;/font&gt;" style="edgeLabel;html=1;align=center;verticalAlign=middle;resizable=0;points=[];" parent="yaOFRfnHvdeHHMXGzQVh-89" vertex="1" connectable="0">
          <mxGeometry x="-0.161" y="3" relative="1" as="geometry">
            <mxPoint x="-3" y="21" as="offset" />
          </mxGeometry>
        </mxCell>
        <mxCell id="yaOFRfnHvdeHHMXGzQVh-91" style="edgeStyle=orthogonalEdgeStyle;rounded=0;orthogonalLoop=1;jettySize=auto;html=1;entryX=1;entryY=0.5;entryDx=0;entryDy=0;entryPerimeter=0;startArrow=none;startFill=0;exitX=0.995;exitY=0.63;exitDx=0;exitDy=0;exitPerimeter=0;endArrow=classic;endFill=1;" parent="1" source="yaOFRfnHvdeHHMXGzQVh-7" target="yaOFRfnHvdeHHMXGzQVh-34" edge="1">
          <mxGeometry relative="1" as="geometry">
            <mxPoint x="1273" y="-341" as="sourcePoint" />
            <mxPoint x="973" y="-314" as="targetPoint" />
            <Array as="points">
              <mxPoint x="847" y="-435" />
            </Array>
          </mxGeometry>
        </mxCell>
        <mxCell id="yaOFRfnHvdeHHMXGzQVh-92" value="&lt;font style=&quot;font-size: 14px;&quot;&gt;Event Logs&lt;/font&gt;" style="edgeLabel;html=1;align=center;verticalAlign=middle;resizable=0;points=[];" parent="yaOFRfnHvdeHHMXGzQVh-91" vertex="1" connectable="0">
          <mxGeometry x="-0.161" y="3" relative="1" as="geometry">
            <mxPoint x="-3" y="21" as="offset" />
          </mxGeometry>
        </mxCell>
        <mxCell id="OTSbnzIJWCMkzen8IBO5-7" value="" style="endArrow=classic;html=1;rounded=0;entryX=0.5;entryY=1;entryDx=0;entryDy=0;entryPerimeter=0;exitX=0.5;exitY=0;exitDx=0;exitDy=0;exitPerimeter=0;startArrow=classic;startFill=1;" parent="1" source="yaOFRfnHvdeHHMXGzQVh-40" target="yaOFRfnHvdeHHMXGzQVh-8" edge="1">
          <mxGeometry width="50" height="50" relative="1" as="geometry">
            <mxPoint x="353" y="-412" as="sourcePoint" />
            <mxPoint x="403" y="-462" as="targetPoint" />
          </mxGeometry>
        </mxCell>
        <mxCell id="OTSbnzIJWCMkzen8IBO5-15" value="&lt;font style=&quot;font-size: 15px;&quot;&gt;Events CRUD Operations&lt;/font&gt;" style="edgeLabel;html=1;align=center;verticalAlign=middle;resizable=0;points=[];" parent="OTSbnzIJWCMkzen8IBO5-7" vertex="1" connectable="0">
          <mxGeometry x="-0.2461" y="-2" relative="1" as="geometry">
            <mxPoint y="1" as="offset" />
          </mxGeometry>
        </mxCell>
        <mxCell id="OTSbnzIJWCMkzen8IBO5-9" style="edgeStyle=orthogonalEdgeStyle;rounded=0;orthogonalLoop=1;jettySize=auto;html=1;entryX=0.9;entryY=0.02;entryDx=0;entryDy=0;entryPerimeter=0;startArrow=classic;startFill=1;exitX=0;exitY=0.5;exitDx=0;exitDy=0;exitPerimeter=0;endArrow=none;endFill=0;" parent="1" target="yaOFRfnHvdeHHMXGzQVh-8" edge="1">
          <mxGeometry relative="1" as="geometry">
            <mxPoint x="755.5" y="-679.55" as="sourcePoint" />
            <mxPoint x="455.5" y="-652.55" as="targetPoint" />
            <Array as="points">
              <mxPoint x="403" y="-680" />
            </Array>
          </mxGeometry>
        </mxCell>
        <mxCell id="OTSbnzIJWCMkzen8IBO5-10" value="&lt;font style=&quot;font-size: 14px;&quot;&gt;Auth. Request&lt;/font&gt;" style="edgeLabel;html=1;align=center;verticalAlign=middle;resizable=0;points=[];" parent="OTSbnzIJWCMkzen8IBO5-9" vertex="1" connectable="0">
          <mxGeometry x="-0.161" y="3" relative="1" as="geometry">
            <mxPoint x="-18" y="-19" as="offset" />
          </mxGeometry>
        </mxCell>
        <mxCell id="OTSbnzIJWCMkzen8IBO5-13" style="edgeStyle=orthogonalEdgeStyle;rounded=0;orthogonalLoop=1;jettySize=auto;html=1;startArrow=classic;startFill=1;exitX=0;exitY=0.5;exitDx=0;exitDy=0;exitPerimeter=0;endArrow=none;endFill=0;entryX=0.087;entryY=0.308;entryDx=0;entryDy=0;entryPerimeter=0;" parent="1" target="yaOFRfnHvdeHHMXGzQVh-7" edge="1">
          <mxGeometry relative="1" as="geometry">
            <mxPoint x="403" y="-662" as="sourcePoint" />
            <mxPoint x="743" y="-662" as="targetPoint" />
            <Array as="points" />
          </mxGeometry>
        </mxCell>
        <mxCell id="OTSbnzIJWCMkzen8IBO5-14" value="&lt;font style=&quot;font-size: 14px;&quot;&gt;Auth. response token&lt;/font&gt;" style="edgeLabel;html=1;align=center;verticalAlign=middle;resizable=0;points=[];" parent="OTSbnzIJWCMkzen8IBO5-13" vertex="1" connectable="0">
          <mxGeometry x="-0.161" y="3" relative="1" as="geometry">
            <mxPoint x="-3" y="21" as="offset" />
          </mxGeometry>
        </mxCell>
      </root>
    </mxGraphModel>
  </diagram>
</mxfile>
